<?xml version="1.0" standalone="no"?>
<!DOCTYPE svg PUBLIC "-//W3C//DTD SVG 20010904//EN"
 "http://www.w3.org/TR/2001/REC-SVG-20010904/DTD/svg10.dtd">
<svg version="1.0" xmlns="http://www.w3.org/2000/svg"
 width="300.000000pt" height="300.000000pt" viewBox="0 0 300.000000 300.000000"
 preserveAspectRatio="xMidYMid meet">
<metadata>
Created by potrace 1.14, written by Peter Selinger 2001-2017
</metadata>
<g transform="translate(0.000000,300.000000) scale(0.100000,-0.100000)"
fill="#000000" stroke="none">
<path d="M605 1500 l600 -600 97 0 98 0 0 600 0 600 -100 0 -100 0 0 -452 0
-453 -453 453 -452 452 -145 0 -145 0 600 -600z"/>
<path d="M1500 2000 l0 -100 300 0 300 0 0 100 0 100 -300 0 -300 0 0 -100z"/>
<path d="M2200 1500 l0 -600 398 2 397 3 3 98 3 97 -301 0 -300 0 -2 498 -3
497 -97 3 -98 3 0 -601z"/>
<path d="M1500 1500 l0 -100 300 0 300 0 0 100 0 100 -300 0 -300 0 0 -100z"/>
<path d="M1500 1000 l0 -100 300 0 300 0 0 100 0 100 -300 0 -300 0 0 -100z"/>
</g>
</svg>
